# xmcd
#
# Track frame offsets:
#	150
#	15019
#	32989
#	46596
#	61559
#	77008
#	91722
#	107527
#	121436
#	139565
#	157845
#	175474
#	192204
#
# Disc length: 2829 seconds
#
# Revision: 1
# Processed by: cddbd v1.4PL0 Copyright (c) Steve Scherf et al.
# Submitted via: audiograbber 1.80.04
#
DISCID=890b0b0d
DTITLE=Toby Keith - Unleashed 
DYEAR=2002
DGENRE=Country
TTITLE0=Courtesy Of The Red, White And Blue (The Angry American)
TTITLE1=Who's Your Daddy? 
TTITLE2=Good To Go To Mexico
TTITLE3=It's All Good
TTITLE4=Beer For My Horses
TTITLE5=Losing My Touch
TTITLE6=Huckleberry
TTITLE7=It Works For Me
TTITLE8=Ain't It Just Like You
TTITLE9=Rock You Baby 
TTITLE10=Rodeo Moon
TTITLE11=That's Not How It Is
TTITLE12=Live Introduction by Toby of "Courtesy of the Red, White and Blue
EXTD=
EXTT0=
EXTT1=
EXTT2=
EXTT3=
EXTT4=
EXTT5=
EXTT6=
EXTT7=
EXTT8=
EXTT9=
EXTT10=
EXTT11=
EXTT12=
PLAYORDER=
